<?xml version="1.0" standalone="no"?>
<!DOCTYPE svg PUBLIC "-//W3C//DTD SVG 20010904//EN"
 "http://www.w3.org/TR/2001/REC-SVG-20010904/DTD/svg10.dtd">
<svg version="1.0" xmlns="http://www.w3.org/2000/svg"
 width="512.000000pt" height="512.000000pt" viewBox="0 0 512.000000 512.000000"
 preserveAspectRatio="xMidYMid meet">
<metadata>
Created by potrace 1.11, written by Peter Selinger 2001-2013
</metadata>
<g transform="translate(0.000000,512.000000) scale(0.100000,-0.100000)"
fill="#000000" stroke="none">
<path d="M320 4320 l0 -160 -160 0 -160 0 0 -1440 0 -1440 160 0 160 0 0 -160
0 -160 2240 0 2240 0 0 160 0 160 160 0 160 0 0 1440 0 1440 -160 0 -160 0 0
160 0 160 -2240 0 -2240 0 0 -160z m1280 -960 l0 -160 -480 0 -480 0 0 -480 0
-480 320 0 320 0 0 160 0 160 -160 0 -160 0 0 160 0 160 320 0 320 0 0 -480 0
-480 -480 0 -480 0 0 160 0 160 -160 0 -160 0 0 480 0 480 160 0 160 0 0 160
0 160 480 0 480 0 0 -160z m1600 0 l0 -160 -320 0 -320 0 0 -640 0 -640 -160
0 -160 0 0 640 0 640 -160 0 -160 0 0 160 0 160 640 0 640 0 0 -160z m1440 80
l0 -80 80 0 80 0 0 -720 0 -720 -160 0 -160 0 0 320 0 320 -160 0 -160 0 0
-320 0 -320 -160 0 -160 0 0 720 0 720 80 0 80 0 0 80 0 80 320 0 320 0 0 -80z
m-1120 -720 l0 -160 -320 0 -320 0 0 160 0 160 320 0 320 0 0 -160z"/>
<path d="M4160 3040 l0 -160 160 0 160 0 0 160 0 160 -160 0 -160 0 0 -160z"/>
</g>
</svg>
